<svg xmlns="http://www.w3.org/2000/svg" fill="#a78bfa" viewBox="0 0 24 24" width="36" height="36"><path d="M19 0h-14c-2.761 0-5 2.239-5 5v14c0 2.761 2.239 5 5 5h14c2.762 0 5-2.239 5-5v-14c0-2.761-2.238-5-5-5zm-11 19h-3v-10h3v10zm-1.5-11.268c-.966 0-1.75-.784-1.75-1.75s.784-1.75 1.75-1.75 1.75.784 1.75 1.75-.784 1.75-1.75 1.75zm15.5 11.268h-3v-5.604c0-1.337-.025-3.063-1.868-3.063-1.868 0-2.154 1.459-2.154 2.967v5.7h-3v-10h2.881v1.367h.041c.401-.761 1.381-1.563 2.844-1.563 3.042 0 3.604 2.003 3.604 4.605v5.591z"/></svg>
